<svg focusable="false" xmlns="http://www.w3.org/2000/svg" viewBox="0 0 30 30"><path class="icon__border" d="M15 .5A14.5 14.5 0 1 1 .5 15 14.516 14.516 0 0 1 15 .5m0-.5a15 15 0 1 0 15 15A15 15 0 0 0 15 0z" fill="currentColor"></path><path d="M11.682 9.938l.872.114.932.728.327.561.116.659-.29.637-.086.892-.319 1.389.055 1.044.35 1.402.114.836-.061.622-.468.708-.624.294-1.082.14-.918-.282-.352-.573-.307-1.097.259-.6.376-1.553-.023-1.49c0-.006-.388-1.732-.388-1.732l-.17-.91.229-.621c.012-.035.658-.874.658-.874z" fill="currentColor" opacity=".2"></path><g fill="none" stroke="currentColor" stroke-linecap="round" stroke-linejoin="round" stroke-width=".4"><rect x="8.639" y="8.639" width="13.25" height="12.722" rx=".702" ry=".702"></rect><path d="M13.72 17.595a1.9 1.9 0 0 0-.08-.23 6.998 6.998 0 0 1-.406-2.094v-.543a6.993 6.993 0 0 1 .404-2.09 1.892 1.892 0 0 0 .085-.24l.034-.088-.006-.002a1.911 1.911 0 1 0-3.699 0l-.005.002.034.089a1.892 1.892 0 0 0 .084.238 6.993 6.993 0 0 1 .404 2.091v.543a6.998 6.998 0 0 1-.405 2.093 1.9 1.9 0 0 0-.081.23.784.784 0 0 0-.03.097 1.911 1.911 0 1 0 3.698 0 .79.79 0 0 0-.03-.096z"></path><circle cx="16.108" cy="13.781" r=".398"></circle><circle cx="17.87" cy="13.781" r=".398"></circle><circle cx="19.632" cy="13.781" r=".398"></circle><circle cx="16.108" cy="17.142" r=".398"></circle><circle cx="17.87" cy="17.142" r=".398"></circle><circle cx="17.87" cy="18.822" r=".398"></circle><circle cx="19.632" cy="17.142" r=".398"></circle><circle cx="16.108" cy="15.462" r=".398"></circle><circle cx="17.87" cy="15.462" r=".398"></circle><circle cx="19.632" cy="15.462" r=".398"></circle><path d="M15.71 10.78h4.319m-3.16 1.125h2.002m-9.288 9.456v1.271a1.16 1.16 0 0 0 1.16 1.16 1.16 1.16 0 0 0 1.159-1.16v-2.57m5.432 1.299V20.7m1.072.661V20.7"></path></g></svg>