<?xml version="1.0" encoding="utf-8"?>
<!-- Generator: Adobe Illustrator 24.0.3, SVG Export Plug-In . SVG Version: 6.00 Build 0)  -->
<svg version="1.1" id="Layer_2" xmlns="http://www.w3.org/2000/svg" xmlns:xlink="http://www.w3.org/1999/xlink" x="0px" y="0px"
	 viewBox="0 0 1080 1080" style="enable-background:new 0 0 1080 1080;" xml:space="preserve">
<style type="text/css">
	.st0{opacity:0.65;fill-rule:evenodd;clip-rule:evenodd;fill:#3D7DDB;enable-background:new    ;}
	.st1{opacity:0.65;fill-rule:evenodd;clip-rule:evenodd;fill:#00D37E;enable-background:new    ;}
	.st2{fill-rule:evenodd;clip-rule:evenodd;fill:#FFA800;}
	.st3{opacity:0.32;clip-path:url(#SVGID_3_);fill-rule:evenodd;clip-rule:evenodd;fill:#FFFFFF;enable-background:new    ;}
	.st4{opacity:0.11;clip-path:url(#SVGID_5_);fill-rule:evenodd;clip-rule:evenodd;fill:#FFFFFF;enable-background:new    ;}
</style>
<g>
	<path class="st0" d="M698.67,367.46l-244.09-64.91c-23.4-6.22-47.23,9.41-53.24,34.91l-26.83,113.91
		c-24.83,105.42,33.43,211.72,130.13,237.44c96.7,25.72,195.23-38.91,220.06-144.33L698.67,367.46z"/>
	<path class="st1" d="M684.33,364.51l-263.76-40.34c-23.87-4.04-46.16,13.72-49.79,39.67l-16.24,115.91
		C339.53,587.01,407.32,687.5,505.99,704.2c98.67,16.69,190.82-56.71,205.84-163.98L684.33,364.51z"/>
	<g>
		<g>
			<path id="SVGID_1_" class="st2" d="M382.9,364.4h298.32c26.27,0,47.56,21.39,47.56,47.76v117.77
				C735.57,721.74,532.18,756,532.18,756h-0.23c0,0-196.6-43.81-196.6-226.07V412.16C335.34,385.79,356.63,364.4,382.9,364.4
				L382.9,364.4z"/>
		</g>
		<g>
			<defs>
				<path id="SVGID_2_" d="M382.9,364.4h298.32c26.27,0,47.56,21.39,47.56,47.76v117.77C735.57,721.74,532.18,756,532.18,756h-0.23
					c0,0-196.6-43.81-196.6-226.07V412.16C335.34,385.79,356.63,364.4,382.9,364.4L382.9,364.4z"/>
			</defs>
			<clipPath id="SVGID_3_">
				<use xlink:href="#SVGID_2_"  style="overflow:visible;"/>
			</clipPath>
			<path class="st3" d="M324.41,606.74c64.27,28.05,327.71-132.27,390.73-226.5c0,0-181.13,319.87-416.56,307.84
				c-159.34-8.14-54.67-122.97-54.67-122.97C243.91,565.12,216.26,559.54,324.41,606.74L324.41,606.74z"/>
		</g>
		<g>
			<defs>
				<path id="SVGID_4_" d="M382.9,364.4h298.32c26.27,0,47.56,21.39,47.56,47.76v117.77C735.57,721.74,532.18,756,532.18,756h-0.23
					c0,0-196.6-43.81-196.6-226.07V412.16C335.34,385.79,356.63,364.4,382.9,364.4L382.9,364.4z"/>
			</defs>
			<clipPath id="SVGID_5_">
				<use xlink:href="#SVGID_4_"  style="overflow:visible;"/>
			</clipPath>
			<path class="st4" d="M721.97,354.83C690.85,520.16,575.6,687.14,385.95,737.23c-5.23,1.39-28.36-17.46-33.49-19.04
				c-17.12-5.31-56.12-316.98,0-353.79C391.74,338.63,727.21,327.03,721.97,354.83z"/>
		</g>
	</g>
</g>
</svg>
