<svg focusable="false" xmlns="http://www.w3.org/2000/svg" viewBox="0 0 30 30"><path class="icon__border" d="M15 .5A14.5 14.5 0 1 1 .5 15 14.516 14.516 0 0 1 15 .5m0-.5a15 15 0 1 0 15 15A15 15 0 0 0 15 0z" fill="currentColor"></path><g data-name="Solid Coloiur" fill="currentColor"><circle cx="14.412" cy="20.688" r=".238"></circle><circle cx="15.588" cy="20.688" r=".238"></circle></g><path opacity=".2" d="M18.8 11.506v3.72l2.445-1.669-2.445-2.051zm-2.175-1.879h-3.36l1.548-1.365h.437l1.375 1.365zm-5.55 1.879v3.699l-2.463-1.603 2.463-2.096z" fill="currentColor"></path><g fill="none" stroke="currentColor" stroke-linecap="round" stroke-linejoin="round" stroke-width=".4"><path d="M21.388 21.738H8.612a.43.43 0 0 1-.43-.43v-7.276a.43.43 0 0 1 .43-.43l5.818 3.652a1.073 1.073 0 0 0 1.14 0l5.818-3.652a.43.43 0 0 1 .43.43v7.276a.43.43 0 0 1-.43.43z"></path><path d="M11.15 15.205v-5.106a.472.472 0 0 1 .472-.472h6.756a.472.472 0 0 1 .472.472v5.106m-7.7-3.766l-2.446 2.163m8.043-4.022l-1.301-1.15a.673.673 0 0 0-.892 0l-1.29 1.14m8.032 4.032l-2.446-2.163M8.308 21.611l4.912-5.116m8.455 5.1l-4.895-5.1m-4.515-5.687h4.066m.784 0h.336m-5.186 1.077h3.089m-3.089 2.149h3.089m-3.089-1.044h4.066m.784 0h.336m-4.811 3.14h2.714m-3.089-1.045h4.066m.784 0h.336m-8.609 3.121h-.661m.661-1.072h-.661"></path></g></svg>